<svg xmlns="http://www.w3.org/2000/svg" width="15" height="15" viewBox="0 0 15 15" fill="none">
  <g clip-path="url(#clip0_1_16)">
    <path d="M8.11965 9.78059C7.86253 9.93091 7.57431 10.0097 7.2814 10.0097C6.98849 10.0097 6.70027 9.93091 6.44315 9.78059L0.281982 6.17934V11.2593C0.281982 11.9224 0.527815 12.5583 0.9654 13.0271C1.40298 13.4959 1.99648 13.7593 2.61532 13.7593H11.9486C12.5675 13.7593 13.161 13.4959 13.5986 13.0271C14.0361 12.5583 14.282 11.9224 14.282 11.2593V6.17934L8.11965 9.78059Z" fill="black" fill-opacity="0.55"/>
    <path d="M7.28198 8.13434C7.18455 8.13427 7.08869 8.10806 7.00315 8.05809L0.586482 4.30809C0.494381 4.25439 0.417492 4.17508 0.363906 4.07851C0.310321 3.98194 0.28202 3.87168 0.281982 3.75934C0.281982 3.0963 0.527815 2.46041 0.9654 1.99157C1.40298 1.52273 1.99648 1.25934 2.61532 1.25934H11.9486C12.5675 1.25934 13.161 1.52273 13.5986 1.99157C14.0361 2.46041 14.282 3.0963 14.282 3.75934C14.2821 3.87156 14.2539 3.98173 14.2006 4.07829C14.1472 4.17484 14.0705 4.25422 13.9786 4.30809L7.56198 8.05809C7.47609 8.10826 7.37981 8.13448 7.28198 8.13434Z" fill="black" fill-opacity="0.55"/>
  </g>
  <defs>
    <clipPath id="clip0_1_16">
      <rect width="14" height="15" fill="white" transform="translate(0.281982 0.00933838)"/>
    </clipPath>
  </defs>
</svg>