<svg xmlns="http://www.w3.org/2000/svg" width="555" height="258" viewBox="0 0 555 258" fill="none">
  <path d="M44.7271 255.607C41.9779 255.607 39.3345 254.547 36.7968 252.428C34.4706 250.308 32.4615 248.189 30.7697 246.069C24.0025 238.227 18.2927 227.842 13.6402 214.913C9.1992 201.985 5.81558 187.784 3.48935 172.312C1.16312 156.628 0 140.732 0 124.624C0 109.576 0.951641 94.9518 2.85492 80.7515C4.96968 66.5511 8.14182 53.6224 12.3713 41.9653C16.6008 30.3083 21.8877 20.9827 28.232 13.9884C36.4796 4.66282 44.4099 0 52.023 0C56.6755 0 60.3763 2.11946 63.1255 6.35839C66.0862 10.3854 67.5665 16.8497 67.5665 25.7515C67.5665 34.2293 65.8747 45.0385 62.4911 58.1792C59.319 71.1079 53.8206 86.58 45.996 104.595C43.2468 110.53 40.2861 116.464 37.114 122.399C34.1533 128.333 30.9812 134.586 27.5976 141.156C26.3287 143.699 25.2714 144.971 24.4255 144.971C24.0025 144.971 23.791 144.547 23.791 143.699C23.791 142.004 24.5312 139.778 26.0115 137.023C45.2558 100.78 54.878 64.7495 54.878 28.9306C54.878 14.7303 51.9173 7.63005 45.996 7.63005C41.7665 7.63005 36.7968 11.763 31.0869 20.0289C23.2623 31.6859 17.8697 45.5684 14.909 61.6763C11.9484 77.5723 10.4681 93.6802 10.4681 110C10.4681 122.293 10.9967 134.268 12.0541 145.925C13.1115 157.37 14.3804 167.755 15.8607 177.081C16.4951 181.108 17.4468 186.513 18.7156 193.295C19.9845 200.077 21.6763 207.177 23.791 214.595C25.9058 222.225 28.232 229.114 30.7697 235.26C33.5189 241.619 36.4796 246.175 39.6517 248.931C40.4976 249.566 41.3435 250.202 42.1894 250.838C43.2468 251.686 44.4099 252.216 45.6788 252.428C47.5821 252.428 48.5337 252.958 48.5337 254.017C48.5337 255.077 47.2648 255.607 44.7271 255.607Z" fill="#CBCBCB" fill-opacity="0.2"/>
  <path d="M82.7829 98.8728C80.8796 98.8728 79.505 97.9191 78.6591 96.0116C78.0246 93.8921 77.7074 92.4085 77.7074 91.5607C77.7074 88.1696 78.6591 84.9904 80.5624 82.0231C82.6771 78.8439 85.0033 77.1484 87.5411 76.9364H88.4927C91.0304 76.9364 92.7222 77.5723 93.5681 78.8439C94.6255 79.9037 95.1542 81.2813 95.1542 82.9769C95.1542 86.1561 93.7796 89.6532 91.0304 93.4682C88.2812 97.0713 85.532 98.8728 82.7829 98.8728ZM66.605 212.688C59.4148 212.688 54.5508 209.933 52.0131 204.422C49.4754 198.911 48.2066 192.553 48.2066 185.347C48.2066 178.141 48.9467 170.617 50.4271 162.775C52.1189 154.721 53.9164 147.408 55.8197 140.838C57.9344 134.268 59.5205 129.605 60.5779 126.85C62.9041 121.975 65.2304 117.842 67.5566 114.451C69.8828 110.848 72.4205 109.046 75.1697 109.046C77.073 109.046 78.4476 109.788 79.2935 111.272C80.3509 112.543 80.8796 114.239 80.8796 116.358C80.8796 120.597 79.7165 124.942 77.3902 129.393C75.064 133.632 72.9492 137.659 71.0459 141.474C66.8164 150.164 63.4328 157.9 60.8951 164.682C58.5689 171.464 57.4058 179.942 57.4058 190.116C57.4058 196.686 58.0402 201.455 59.309 204.422C60.7894 207.389 62.7984 208.873 65.3361 208.873C68.7197 208.873 72.632 206.965 77.073 203.15C81.514 199.123 86.0607 193.825 90.7132 187.254C95.3657 180.684 99.4894 173.584 103.085 165.954C105.411 161.079 107.208 158.642 108.477 158.642C109.323 158.642 109.746 159.489 109.746 161.185C109.746 163.516 108.794 166.908 106.891 171.358C105.199 175.597 103.085 179.942 100.547 184.393C98.2206 188.844 96.0001 192.341 93.8853 194.884C90.2902 199.547 86.1665 203.68 81.514 207.283C76.8615 210.886 71.8918 212.688 66.605 212.688Z" fill="#CBCBCB" fill-opacity="0.2"/>
  <path d="M120.868 233.035C119.599 233.035 118.542 231.975 117.696 229.856C115.581 225.405 113.995 218.728 112.938 209.827C111.881 201.137 111.352 191.281 111.352 180.26C111.352 167.331 111.986 153.873 113.255 139.884C110.506 143.276 107.863 146.667 105.325 150.058C102.999 153.237 101.095 155.568 99.615 157.052C98.7691 157.9 97.9232 158.324 97.0773 158.324C95.3855 158.324 94.5396 157.158 94.5396 154.827C94.5396 152.707 95.7027 150.164 98.0289 147.197C100.567 144.229 103.422 141.262 106.594 138.295C109.766 135.116 112.304 132.678 114.207 130.983C115.687 115.299 117.696 100.145 120.234 85.5202C122.772 70.896 125.627 58.1792 128.799 47.3699C132.182 36.3487 135.777 28.7187 139.584 24.4798C141.487 22.5723 143.708 21.6185 146.245 21.6185C148.572 21.6185 150.475 22.3603 151.955 23.8439C153.436 25.1156 154.176 26.9172 154.176 29.2486C154.176 32.0039 152.907 35.9249 150.369 41.0116C148.043 45.8863 145.294 51.5029 142.122 57.8613C138.949 64.0077 135.883 73.0154 132.922 84.8844C129.962 96.7534 127.318 109.576 124.992 123.353C131.336 119.961 138.104 118.266 145.294 118.266C153.753 118.266 159.886 120.915 163.692 126.214C167.71 131.301 169.719 137.553 169.719 144.971C169.719 151.753 168.345 158.854 165.595 166.272C163.058 173.69 159.886 180.578 156.079 186.936C152.272 193.295 148.572 198.382 144.977 202.197C142.862 204.316 140.641 206.541 138.315 208.873C135.989 211.204 133.028 212.37 129.433 212.37C126.684 212.37 124.675 211.31 123.406 209.191C122.137 207.071 121.503 204.74 121.503 202.197C121.503 200.289 122.243 197.322 123.723 193.295C125.204 189.268 127.001 184.923 129.116 180.26C131.442 175.597 133.768 171.146 136.095 166.908C138.421 162.669 140.43 159.277 142.122 156.734C142.968 155.25 144.131 153.449 145.611 151.329C147.303 148.998 148.572 147.832 149.418 147.832C149.84 147.832 150.052 148.15 150.052 148.786C150.052 149.634 149.523 151.118 148.466 153.237C147.409 155.145 146.351 156.946 145.294 158.642C143.179 162.669 140.747 167.543 137.998 173.266C135.249 178.988 132.817 184.711 130.702 190.434C128.587 195.944 127.53 200.501 127.53 204.104C127.53 205.8 128.058 206.647 129.116 206.647C130.173 206.647 131.442 205.906 132.922 204.422C134.614 202.726 136.306 200.925 137.998 199.017C139.69 196.898 140.853 195.414 141.487 194.566C146.351 187.784 150.263 179.942 153.224 171.04C156.185 162.139 157.665 153.873 157.665 146.243C157.665 139.672 156.502 134.268 154.176 130.029C151.85 125.578 147.937 123.353 142.439 123.353C137.363 123.353 131.125 125.684 123.723 130.347C122.031 141.58 120.657 152.813 119.599 164.046C118.542 175.067 118.013 185.241 118.013 194.566C118.013 200.501 118.225 205.8 118.648 210.462C119.282 215.125 120.128 218.94 121.186 221.908C121.82 223.391 122.243 224.663 122.454 225.723C122.666 226.994 122.772 228.16 122.772 229.22C122.772 231.763 122.137 233.035 120.868 233.035Z" fill="#CBCBCB" fill-opacity="0.2"/>
  <path d="M220.223 220.954C213.456 220.954 208.275 217.775 204.68 211.416C201.085 205.27 199.287 198.487 199.287 191.069C199.287 184.075 200.45 176.763 202.776 169.133C205.103 161.503 207.958 153.979 211.341 146.561C214.936 139.143 218.637 132.36 222.444 126.214C218.637 127.698 215.042 128.439 211.658 128.439C209.967 128.439 208.486 128.227 207.217 127.803C205.948 127.38 204.891 127.062 204.045 126.85C202.988 129.393 201.085 133.632 198.335 139.566C195.798 145.501 193.048 151.753 190.088 158.324C187.339 164.682 184.907 170.087 182.792 174.538C179.408 181.744 176.448 185.347 173.91 185.347C172.641 185.347 172.007 184.499 172.007 182.803C172.007 181.532 172.535 179.836 173.593 177.717C178.457 168.603 183.003 159.595 187.233 150.694C191.674 141.792 195.692 133.208 199.287 124.942C198.864 123.882 198.441 122.505 198.018 120.809C197.595 118.902 197.384 116.888 197.384 114.769C197.384 112.437 197.595 110 198.018 107.457C198.653 104.701 199.498 102.052 200.556 99.5087C201.19 98.0251 202.353 95.9056 204.045 93.1503C205.737 90.183 207.64 87.5337 209.755 85.2023C211.87 82.659 213.879 81.3873 215.782 81.3873C219.377 81.3873 221.175 83.2948 221.175 87.1098C221.175 90.7129 220.012 94.8459 217.685 99.5087C215.571 104.171 213.35 108.516 211.024 112.543C208.698 116.358 207.535 119.22 207.535 121.127C207.535 122.823 208.38 123.671 210.072 123.671C212.398 123.671 215.253 122.505 218.637 120.173C222.232 117.63 225.087 115.299 227.202 113.179C228.259 112.119 229.951 110.53 232.277 108.41C234.603 106.079 236.824 104.913 238.939 104.913C241.053 104.913 242.428 105.549 243.062 106.821C243.908 108.092 244.331 109.576 244.331 111.272C244.331 113.179 243.485 115.617 241.794 118.584C240.102 121.339 238.093 124.094 235.767 126.85C233.652 129.605 231.854 131.936 230.374 133.844C227.413 138.295 224.03 143.911 220.223 150.694C216.417 157.476 213.139 164.788 210.389 172.63C207.64 180.26 206.266 187.572 206.266 194.566C206.266 199.229 207.429 204.104 209.755 209.191C212.081 214.277 215.253 216.821 219.271 216.821C222.867 216.821 226.673 214.913 230.691 211.098C234.921 207.283 238.833 202.726 242.428 197.428C246.235 192.129 249.512 187.042 252.262 182.168C255.222 177.293 257.231 173.902 258.289 171.994C258.712 170.935 259.452 169.663 260.509 168.179C261.567 166.484 262.835 165.636 264.316 165.636C265.585 165.636 266.219 166.272 266.219 167.543C266.219 168.603 265.902 169.875 265.267 171.358C264.844 172.63 264.422 173.796 263.999 174.856C262.095 179.306 259.769 183.969 257.02 188.844C254.271 193.719 252.367 197.004 251.31 198.699C248.349 203.574 243.908 208.449 237.987 213.324C232.277 218.41 226.356 220.954 220.223 220.954Z" fill="#CBCBCB" fill-opacity="0.2"/>
  <path d="M270.608 202.514C266.801 202.514 264.052 200.925 262.36 197.746C260.669 194.355 259.823 190.434 259.823 185.983C259.823 180.26 260.774 173.584 262.678 165.954C264.792 158.324 267.542 150.482 270.925 142.428C274.309 134.162 278.115 126.638 282.345 119.856C286.786 112.861 291.438 107.245 296.302 103.006C301.166 98.5549 305.924 96.3295 310.577 96.3295C314.806 96.3295 318.402 98.237 321.362 102.052C324.534 105.655 326.12 109.788 326.12 114.451C326.12 117.206 325.697 119.538 324.852 121.445C324.006 123.141 323.054 123.988 321.997 123.988C321.151 123.988 320.411 123.353 319.776 122.081C317.661 117.206 315.335 113.709 312.797 111.59C310.471 109.47 308.039 108.41 305.502 108.41C301.272 108.41 297.042 110.848 292.813 115.723C288.795 120.385 285.517 125.79 282.979 131.936C280.865 136.599 278.856 142.216 276.952 148.786C275.26 155.145 273.78 161.503 272.511 167.861C271.454 174.008 270.925 179.094 270.925 183.121C270.925 190.328 272.617 193.931 276.001 193.931C280.23 193.931 285.623 189.268 292.179 179.942C297.043 173.16 301.378 165.318 305.184 156.416C309.202 147.514 312.586 139.778 315.335 133.208C316.393 131.089 317.556 129.711 318.825 129.075C320.093 128.439 321.256 128.121 322.314 128.121C324.852 128.121 326.438 129.181 327.072 131.301C327.918 133.42 328.341 135.222 328.341 136.705C328.341 142.216 327.812 147.197 326.755 151.647C325.697 155.886 325.169 161.079 325.169 167.225C325.169 171.676 325.486 175.809 326.12 179.624C326.966 183.227 328.341 185.029 330.244 185.029C332.57 185.029 335.531 182.062 339.126 176.127C339.972 174.432 341.241 173.584 342.933 173.584C344.836 173.584 345.788 174.538 345.788 176.445C345.788 179.2 343.884 182.168 340.078 185.347C336.271 188.314 332.465 189.798 328.658 189.798C323.583 189.798 319.988 187.678 317.873 183.439C314.278 176.445 312.48 170.193 312.48 164.682C312.48 158.96 312.374 155.039 312.163 152.919C311.106 155.462 309.097 159.489 306.136 165C303.175 170.299 299.686 175.915 295.668 181.85C291.65 187.572 287.42 192.447 282.979 196.474C278.538 200.501 274.415 202.514 270.608 202.514Z" fill="#CBCBCB" fill-opacity="0.2"/>
  <path d="M385.026 220.954C378.258 220.954 373.077 217.775 369.482 211.416C365.887 205.27 364.089 198.487 364.089 191.069C364.089 184.075 365.253 176.763 367.579 169.133C369.905 161.503 372.76 153.979 376.144 146.561C379.739 139.143 383.439 132.36 387.246 126.214C383.439 127.698 379.844 128.439 376.461 128.439C374.769 128.439 373.289 128.227 372.02 127.803C370.751 127.38 369.694 127.062 368.848 126.85C367.79 129.393 365.887 133.632 363.138 139.566C360.6 145.501 357.851 151.753 354.89 158.324C352.141 164.682 349.709 170.087 347.594 174.538C344.211 181.744 341.25 185.347 338.712 185.347C337.443 185.347 336.809 184.499 336.809 182.803C336.809 181.532 337.338 179.836 338.395 177.717C343.259 168.603 347.806 159.595 352.035 150.694C356.476 141.792 360.494 133.208 364.089 124.942C363.666 123.882 363.244 122.505 362.821 120.809C362.398 118.902 362.186 116.888 362.186 114.769C362.186 112.437 362.398 110 362.821 107.457C363.455 104.701 364.301 102.052 365.358 99.5087C365.993 98.0251 367.156 95.9056 368.848 93.1503C370.539 90.183 372.443 87.5337 374.557 85.2023C376.672 82.659 378.681 81.3873 380.585 81.3873C384.18 81.3873 385.977 83.2948 385.977 87.1098C385.977 90.7129 384.814 94.8459 382.488 99.5087C380.373 104.171 378.153 108.516 375.826 112.543C373.5 116.358 372.337 119.22 372.337 121.127C372.337 122.823 373.183 123.671 374.875 123.671C377.201 123.671 380.056 122.505 383.439 120.173C387.035 117.63 389.889 115.299 392.004 113.179C393.062 112.119 394.753 110.53 397.08 108.41C399.406 106.079 401.626 104.913 403.741 104.913C405.856 104.913 407.23 105.549 407.865 106.821C408.711 108.092 409.134 109.576 409.134 111.272C409.134 113.179 408.288 115.617 406.596 118.584C404.904 121.339 402.895 124.094 400.569 126.85C398.454 129.605 396.657 131.936 395.176 133.844C392.216 138.295 388.832 143.911 385.026 150.694C381.219 157.476 377.941 164.788 375.192 172.63C372.443 180.26 371.068 187.572 371.068 194.566C371.068 199.229 372.231 204.104 374.557 209.191C376.884 214.277 380.056 216.821 384.074 216.821C387.669 216.821 391.476 214.913 395.494 211.098C399.723 207.283 403.635 202.726 407.23 197.428C411.037 192.129 414.315 187.042 417.064 182.168C420.025 177.293 422.034 173.902 423.091 171.994C423.514 170.935 424.254 169.663 425.312 168.179C426.369 166.484 427.638 165.636 429.118 165.636C430.387 165.636 431.021 166.272 431.021 167.543C431.021 168.603 430.704 169.875 430.07 171.358C429.647 172.63 429.224 173.796 428.801 174.856C426.898 179.306 424.571 183.969 421.822 188.844C419.073 193.719 417.17 197.004 416.112 198.699C413.152 203.574 408.711 208.449 402.789 213.324C397.08 218.41 391.158 220.954 385.026 220.954Z" fill="#CBCBCB" fill-opacity="0.2"/>
  <path d="M427.163 330C418.915 330 412.254 327.775 407.178 323.324C402.103 319.085 399.565 313.362 399.565 306.156C399.565 299.798 401.363 293.439 404.958 287.081C408.342 280.935 412.571 275 417.646 269.277C422.933 263.767 428.22 258.892 433.507 254.653C442.812 247.235 453.809 240.241 466.497 233.671C479.397 227.1 493.883 222.119 509.956 218.728C510.167 216.397 510.273 213.96 510.273 211.416C510.273 209.085 510.273 206.753 510.273 204.422C510.273 187.254 509.11 171.676 506.784 157.688C504.457 143.487 501.814 131.301 498.853 121.127C490.394 142.11 482.887 159.595 476.331 173.584C469.775 187.36 466.18 198.911 465.546 208.237C465.334 209.721 464.383 211.31 462.691 213.006C461.21 214.913 459.519 215.867 457.615 215.867C456.347 215.867 455.078 215.125 453.809 213.642C452.751 212.37 452.011 210.039 451.588 206.647C451.588 205.8 451.483 204.634 451.271 203.15C451.271 201.667 451.271 199.017 451.271 195.202C451.271 191.387 451.271 185.665 451.271 178.035C451.271 171.252 451.06 164.364 450.637 157.37C450.425 150.164 449.685 143.487 448.416 137.341C447.147 131.195 445.244 126.214 442.706 122.399C440.38 118.584 437.102 116.676 432.873 116.676C429.489 116.676 426.317 117.948 423.356 120.491C420.607 123.035 418.281 125.578 416.378 128.121C414.474 130.453 412.994 131.619 411.937 131.619C411.091 131.619 410.668 131.301 410.668 130.665C410.668 130.241 410.985 129.605 411.619 128.757C412.042 127.698 412.465 126.85 412.888 126.214C414.792 123.459 417.224 120.703 420.184 117.948C423.356 115.193 426.634 112.861 430.018 110.954C433.613 108.834 436.785 107.775 439.534 107.775C445.244 107.775 449.685 110.742 452.857 116.676C456.029 122.399 458.25 129.711 459.519 138.613C460.999 147.514 461.739 156.628 461.739 165.954C461.739 169.981 461.528 174.856 461.105 180.578C460.682 186.301 460.153 191.175 459.519 195.202C463.748 187.36 469.141 176.445 475.697 162.457C482.252 148.468 489.442 132.678 497.267 115.087L494.412 106.821V105.867C494.412 103.748 495.047 102.158 496.315 101.098C497.796 100.039 499.276 99.5087 500.756 99.5087C502.025 99.5087 503.294 99.8266 504.563 100.462C505.832 101.098 506.678 102.052 507.101 103.324C509.638 109.046 511.753 116.888 513.445 126.85C515.348 136.811 516.723 147.62 517.569 159.277C518.626 170.723 519.155 182.062 519.155 193.295C519.155 201.773 518.838 209.721 518.203 217.139C523.49 216.079 529.094 215.231 535.016 214.595C541.148 213.96 546.435 213.642 550.876 213.642C553.625 213.642 555 214.066 555 214.913C555 216.609 552.779 217.669 548.338 218.093C543.263 218.516 538.082 219.046 532.795 219.682C527.72 220.53 522.538 221.59 517.252 222.861C512.811 247.235 505.832 266.734 496.315 281.358C487.011 296.195 477.388 307.322 467.449 314.74C460.259 320.039 453.174 323.854 446.196 326.185C439.428 328.728 433.084 330 427.163 330ZM424.625 323.324C428.22 323.324 432.344 322.582 436.997 321.098C441.86 319.615 446.936 317.283 452.223 314.104C469.141 304.143 482.252 291.532 491.557 276.272C500.862 261.224 506.784 244.056 509.321 224.769C496.844 228.16 484.261 233.035 471.573 239.393C459.096 245.963 447.676 253.593 437.314 262.283C432.661 266.31 428.009 270.867 423.356 275.954C418.915 281.04 415.214 286.233 412.254 291.532C409.293 297.042 407.813 302.341 407.813 307.428C407.813 312.303 409.293 316.118 412.254 318.873C415.214 321.84 419.338 323.324 424.625 323.324Z" fill="#CBCBCB" fill-opacity="0.2"/>
</svg>