<svg xmlns="http://www.w3.org/2000/svg" width="23" height="17" viewBox="0 0 23 17" fill="none">
  <g clip-path="url(#clip0_1_20)">
    <path d="M16.3886 6.92927H15.112V4.55331C15.112 3.60809 14.7084 2.70159 13.9902 2.03322C13.2719 1.36485 12.2978 0.989365 11.282 0.989365C10.2662 0.989365 9.29204 1.36485 8.57378 2.03322C7.85552 2.70159 7.452 3.60809 7.452 4.55331V6.92927H6.17534C5.83675 6.92927 5.51203 7.05443 5.27261 7.27722C5.03319 7.50001 4.89868 7.80218 4.89868 8.11725V14.0572C4.89868 14.3722 5.03319 14.6744 5.27261 14.8972C5.51203 15.12 5.83675 15.2451 6.17534 15.2451H16.3886C16.7272 15.2451 17.0519 15.12 17.2914 14.8972C17.5308 14.6744 17.6653 14.3722 17.6653 14.0572V8.11725C17.6653 7.80218 17.5308 7.50001 17.2914 7.27722C17.0519 7.05443 16.7272 6.92927 16.3886 6.92927ZM10.0053 6.92927V4.55331C10.0053 4.23823 10.1398 3.93607 10.3792 3.71328C10.6187 3.49049 10.9434 3.36533 11.282 3.36533C11.6206 3.36533 11.9453 3.49049 12.1847 3.71328C12.4241 3.93607 12.5586 4.23823 12.5586 4.55331V6.92927H10.0053Z" fill="black" fill-opacity="0.55"/>
  </g>
  <defs>
    <clipPath id="clip0_1_20">
      <rect width="22" height="16.162" fill="white" transform="translate(0.281982 0.440308)"/>
    </clipPath>
  </defs>
</svg>