<svg width="1480" height="641" viewBox="0 0 1480 641" fill="none" xmlns="http://www.w3.org/2000/svg">
<path d="M129.556 493.362C116.868 527.875 89.4871 545.132 46.0792 545.132H33.3907V640.041H45.4114C130.892 640.041 180.978 606.192 213.033 526.548L360.62 145.58H257.109L178.974 358.63L103.511 145.58H0L131.559 488.053L129.556 493.362Z" fill="black"/>
<path d="M394.233 447.567C429.627 482.079 474.371 499.336 527.128 499.336C579.885 499.336 623.961 482.079 659.355 447.567C694.75 412.39 712.781 369.249 712.781 318.144C712.781 267.039 694.75 223.898 659.355 189.385C623.961 154.209 579.885 136.952 527.128 136.952C474.371 136.952 429.627 154.209 394.233 189.385C358.839 223.898 341.476 267.039 341.476 318.144C341.476 369.249 358.839 412.39 394.233 447.567ZM527.128 401.107C503.755 401.107 484.388 393.143 469.028 377.214C453.669 361.285 445.655 341.374 445.655 318.144C445.655 294.914 453.669 275.003 469.028 259.074C484.388 243.145 503.755 235.181 527.128 235.181C549.834 235.181 569.2 243.145 584.56 259.738C600.588 275.667 608.601 294.914 608.601 318.144C608.601 341.374 600.588 360.621 584.56 377.214C569.2 393.143 549.834 401.107 527.128 401.107Z" fill="black"/>
<path d="M741.782 367.258C741.782 405.09 754.471 436.284 779.848 461.505C805.892 486.725 837.28 499.336 874.677 499.336C914.746 499.336 946.133 484.734 969.507 455.531V490.708H1069.68V145.58H969.507V340.71C969.507 378.541 942.126 407.081 905.397 407.081C868.667 407.081 841.954 378.541 841.954 340.71V145.58H741.782V367.258Z" fill="black"/>
<path fill-rule="evenodd" clip-rule="evenodd" d="M1187.78 0C1148.21 0 1116.13 32.0814 1116.13 71.6559V292.216C1116.13 331.79 1148.21 363.872 1187.78 363.872H1408.34C1447.92 363.872 1480 331.79 1480 292.216V71.6558C1480 32.0814 1447.92 0 1408.34 0H1187.78ZM1168.04 306.614L1258.95 179.4L1171.67 57.1744H1250.62L1298.06 124.167L1345.86 57.1744H1424.45L1337.53 179.4L1428.07 306.614H1349.48L1298.06 234.633L1246.99 306.614H1168.04Z" fill="black"/>
</svg>
